<?xml version="1.0" standalone="no"?>
<!DOCTYPE svg PUBLIC "-//W3C//DTD SVG 20010904//EN"
 "http://www.w3.org/TR/2001/REC-SVG-20010904/DTD/svg10.dtd">
<svg version="1.0" xmlns="http://www.w3.org/2000/svg"
 width="192.000000pt" height="192.000000pt" viewBox="0 0 192.000000 192.000000"
 preserveAspectRatio="xMidYMid meet">

<g transform="translate(0.000000,192.000000) scale(0.100000,-0.100000)"
fill="#000000" stroke="none">
<path d="M1 1793 c1 -80 5 -119 10 -105 5 12 5 30 2 39 -4 11 -3 14 5 9 7 -4
10 -2 6 7 -2 7 5 25 16 38 12 13 18 17 14 9 -7 -13 -5 -13 9 -1 18 15 23 26 7
16 -19 -12 -10 12 13 33 25 24 43 29 31 10 -4 -6 8 0 28 15 19 15 52 33 73 40
36 12 30 13 -89 16 l-127 2 2 -128z m169 103 c0 -2 -12 -11 -27 -20 l-28 -17
24 20 c23 21 31 25 31 17z"/>
<path d="M1705 1903 c21 -7 54 -25 73 -40 20 -15 32 -21 28 -15 -13 21 10 13
32 -11 23 -24 30 -43 12 -32 -16 10 -11 -1 7 -16 14 -12 16 -12 9 1 -4 8 2 4
14 -9 11 -13 18 -31 16 -38 -4 -9 -1 -11 6 -7 8 5 9 2 5 -9 -3 -9 -3 -27 2
-39 5 -14 9 25 10 105 l2 128 -127 -2 c-119 -3 -125 -4 -89 -16z m91 -34 c3
-6 -5 -3 -20 6 -14 10 -26 19 -26 22 0 7 39 -17 46 -28z"/>
<path d="M810 1464 c-275 -59 -469 -305 -431 -545 11 -66 48 -156 86 -205 14
-18 25 -39 25 -46 -1 -7 -14 -47 -30 -88 -42 -106 -36 -110 107 -70 l111 31
59 -20 c64 -21 168 -41 221 -41 29 0 32 3 32 29 0 28 0 28 -78 33 -45 4 -109
17 -154 32 l-78 27 -73 -20 c-40 -12 -78 -21 -84 -21 -7 0 -2 24 13 60 13 33
24 61 24 62 0 2 -20 30 -45 63 -51 68 -85 162 -85 235 0 71 35 171 80 231 102
135 260 209 450 209 111 0 191 -19 285 -68 122 -65 223 -193 240 -305 6 -37
10 -42 31 -42 13 1 26 4 29 6 9 10 -26 134 -53 183 -15 28 -55 78 -88 112
-141 142 -378 205 -594 158z"/>
<path d="M1105 868 l-170 -173 173 170 c94 93 172 171 172 172 0 8 -17 -9
-175 -169z"/>
<path d="M1240 943 l-65 -68 68 65 c62 60 72 70 64 70 -1 0 -32 -30 -67 -67z"/>
<path d="M1510 826 c0 -2 7 -7 16 -10 8 -3 12 -2 9 4 -6 10 -25 14 -25 6z"/>
<path d="M1040 745 c-41 -41 -72 -75 -69 -75 2 0 38 34 79 75 41 41 72 75 69
75 -2 0 -38 -34 -79 -75z"/>
<path d="M1430 753 l-65 -68 68 65 c62 60 72 70 64 70 -1 0 -32 -30 -67 -67z"/>
<path d="M1274 598 l-29 -33 33 29 c30 28 37 36 29 36 -2 0 -16 -15 -33 -32z"/>
<path d="M1214 538 l-19 -23 23 19 c21 18 27 26 19 26 -2 0 -12 -10 -23 -22z"/>
<path d="M1169 493 c-13 -16 -12 -17 4 -4 16 13 21 21 13 21 -2 0 -10 -8 -17
-17z"/>
<path d="M1 127 l-2 -128 127 2 c119 3 125 4 89 16 -21 7 -54 25 -73 40 -20
15 -32 21 -28 15 13 -21 -10 -13 -32 11 -23 24 -30 43 -12 32 16 -10 11 1 -7
16 -14 12 -16 12 -9 -1 4 -8 -2 -4 -14 9 -11 13 -18 31 -16 38 4 9 1 11 -6 7
-8 -5 -9 -2 -5 9 3 9 3 27 -2 39 -5 14 -9 -25 -10 -105z m169 -104 c0 -7 -39
17 -46 28 -3 6 5 3 20 -6 14 -10 26 -19 26 -22z"/>
<path d="M1908 233 c0 -10 0 -26 0 -36 1 -10 -2 -15 -8 -12 -5 3 -7 0 -4 -8 2
-7 -5 -25 -16 -38 -12 -13 -18 -17 -14 -9 7 13 5 13 -9 1 -18 -15 -23 -26 -7
-16 19 12 10 -12 -13 -33 -25 -24 -43 -29 -31 -10 4 6 -8 0 -28 -15 -19 -15
-52 -33 -73 -40 -36 -12 -30 -13 89 -16 l127 -2 -2 125 c-1 70 -3 126 -5 126
-2 0 -5 -8 -6 -17z m-113 -183 c-3 -5 -16 -15 -28 -21 -19 -9 -19 -8 3 10 28
23 34 26 25 11z"/>
</g>
</svg>
